<svg width="74" height="52" viewBox="0 0 74 52" fill="none" xmlns="http://www.w3.org/2000/svg">
<path d="M70.0941 30.645C69.0067 43.0739 58.0497 52.2679 45.6209 51.1805C33.192 50.0932 23.998 39.1361 25.0854 26.7073C26.1728 14.2785 37.1298 5.08442 49.5586 6.1718C61.9874 7.25918 71.1815 18.2162 70.0941 30.645Z" fill="white"/>
<path d="M8.64786 24.9324C8.64786 24.9324 4.62148 23.8447 4.59363 21.8123C4.5652 19.8346 7.71231 4.87508 8.22744 4.50408C8.74256 4.13307 10.8919 5.85511 11.0987 6.22622C11.3054 6.59734 8.62406 18.0085 8.64786 24.9324Z" fill="url(#paint0_linear)"/>
<path d="M10.3481 10.8089C10.3481 10.8089 9.70263 17.6113 12.4004 17.8137C15.6901 18.0637 18.7954 3.53341 12.0522 2.89301C6.93225 2.40726 4.59149 6.85487 1.85003 10.8934C1.41641 11.5321 0.0454119 7.62969 0.000278895 6.56246C-0.0444892 5.49105 5.30507 -0.773664 12.8481 0.0795936C19.0321 0.780323 21.0638 5.52642 20.2034 10.8516C19.6824 14.0716 17.3547 20.6721 12.3299 19.8668C8.29403 19.2238 8.28403 11.4227 8.28403 11.4227L10.3481 10.8089Z" fill="url(#paint1_linear)"/>
<path d="M46.6702 6.19055C46.0195 10.2228 43.0998 20.0875 41.5412 20.1529C40.0919 20.2152 42.6073 11.7567 42.5534 11.1258C42.4991 10.499 39.2231 8.51032 38.0496 8.73126C36.876 8.9522 33.2486 17.553 33.2486 17.553L33.1557 17.5112C33.1557 17.5112 34.4756 11.5874 34.4321 11.0289C34.3887 10.4703 30.6887 8.24277 30.1475 8.76699C29.6064 9.29122 25.8338 20.174 24.4984 20.1832C22.841 20.2736 25.4379 11.7465 25.435 11.2041C25.4283 10.6572 22.2626 8.94291 22.1582 9.32042C21.0794 13.1598 19.5496 18.5567 21.212 21.0473C21.4228 21.0363 21.6226 21.0075 21.8372 21.0011C23.3502 20.978 24.5585 21.2224 25.5332 21.6438C28.4613 19.3574 30.0961 12.3768 30.0961 12.3768L30.3511 12.437C30.3511 12.437 29.4094 20.2262 29.3766 20.7445C29.3561 21.0747 30.7494 21.8439 31.951 22.3104C32.058 20.895 32.2856 19.5407 32.6526 19.4719C32.9511 19.4182 33.7445 19.7524 34.5441 20.1585C35.6624 16.9236 37.32 11.6976 37.9833 11.8397C39.3845 12.1346 34.2663 21.8952 40.5455 22.6589C44.8812 23.1853 47.2335 8.72363 47.2335 8.72363C47.2331 8.7278 47.2697 6.15054 46.6702 6.19055Z" fill="url(#paint2_linear)"/>
<path d="M25.4298 8.16094C25.9414 8.11745 27.6181 3.72941 27.6147 3.28783C27.6159 2.84245 24.5025 0.674637 23.7962 0.831391C23.0904 0.983973 23.0344 5.98871 23.3516 6.77715C23.6687 7.56558 24.9053 8.20751 25.4298 8.16094Z" fill="url(#paint3_linear)"/>
<path d="M47.7774 2.55539C47.6301 2.55932 47.5008 2.59844 47.4091 2.68708C47.0061 3.07209 44.3978 19.9321 44.9343 20.6599C45.4107 21.3068 47.6662 23.0633 48.1161 22.4302C48.566 21.7972 52.0065 9.72117 53.7889 9.78465C54.3829 9.8072 54.77 10.5639 54.374 12.6433C53.8407 15.4292 51.2576 15.9303 50.9416 16.4238C50.6256 16.9173 51.1199 21.9659 54.4178 22.3133C58.5393 22.7453 59.7871 16.7816 60.4914 15.2084L60.6674 15.2112C60.3177 16.2817 59.6226 22.0206 63.6687 22.5469C67.3785 23.0312 69.2534 16.7608 69.2534 16.7608C69.2534 16.7608 69.5069 20.7714 68.8261 23.3721C68.1452 25.9729 62.6542 24.5007 62.3639 24.8913C62.1932 25.1159 61.5979 26.4508 61.2837 27.6925C61.8899 27.2874 62.5564 27.0095 63.2728 26.9755C65.1441 26.8871 66.1755 28.0028 66.5143 29.5034C66.7401 29.4643 66.9252 29.4595 67.1556 29.4166C69.73 28.919 72.2535 28.1395 72.6151 27.3642C73.3475 25.806 70.683 16.0118 70.7858 15.2685C70.8889 14.521 73.5843 12.3529 73.4164 11.2497C73.2527 10.1468 69.8084 8.68977 69.255 9.16249C68.7016 9.63521 66.4386 20.7257 64.6951 20.5059C63.3458 20.3374 65.4672 10.7686 65.2735 10.201C65.0755 9.63317 62.112 8.05425 61.5851 8.41581C61.0624 8.77774 58.0679 19.5941 55.7991 19.4292C54.21 19.3154 54.0784 17.2698 54.0784 17.2698C54.0784 17.2698 57.3398 15.9707 58.1294 12.3666C58.5072 10.6387 57.8119 7.40906 54.7602 7.12526C51.709 6.8373 50.3025 11.6398 48.9391 15.614L48.82 15.5363C48.82 15.5363 51.269 5.19758 51.1226 4.76029C50.9847 4.36998 48.8209 2.52481 47.7774 2.55539ZM61.3624 29.7671C61.3662 29.7716 61.3654 29.78 61.3696 29.7803C61.4409 29.8286 61.6412 29.8419 61.7856 29.8714C61.6574 29.8013 61.5145 29.7552 61.3624 29.7671Z" fill="url(#paint4_linear)"/>
<path d="M12.1728 41.7783C11.8565 40.5487 15.6806 24.9508 16.3519 24.522C17.0232 24.0932 19.6748 26.2626 19.6811 27.1499C19.6912 28.0418 16.3346 39.3518 15.929 44.5151C15.929 44.5151 12.6118 43.4768 12.1728 41.7783Z" fill="url(#paint5_linear)"/>
<path d="M18.5303 30.9747C18.5303 30.9747 17.0106 37.5997 20.1382 37.638C23.2618 37.6759 27.5165 23.8724 19.7411 23.2762C14.4549 22.8684 10.0836 31.1435 9.48974 31.1672C8.89171 31.1905 7.97786 27.2441 8.13129 26.3539C8.28471 25.4638 13.8626 19.2274 21.4133 20.9051C28.9595 22.5866 28.6683 28.1213 28.048 31.5174C27.4277 34.9136 24.6978 40.0668 20.4548 39.8721C16.2122 39.6732 16.311 33.651 16.311 33.651L18.5303 30.9747Z" fill="url(#paint6_linear)"/>
<path d="M29.7743 28.815C29.9178 28.1341 33.3203 30.3567 33.3814 30.7613C33.4426 31.1659 30.5531 39.8228 32.066 39.7997C33.5786 39.7807 36.9784 28.7939 37.7015 28.4915C38.4247 28.1891 41.8242 30.2055 41.8569 30.6958C41.8937 31.1866 40.6483 37.3144 40.6483 37.3144L40.812 37.3624C40.812 37.3624 44.3075 27.775 45.4529 27.6357C47.4043 27.3987 50.155 29.539 50.2781 30.1466C50.4012 30.7541 47.4687 39.2308 48.7534 39.4188C50.697 39.7024 53.5788 27.0564 53.5788 27.0564L54.5095 28.6508C54.5095 28.6508 52.0528 42.4351 47.9088 42.165C41.4611 41.7438 47.5525 30.694 45.7853 30.6487C44.7256 30.6232 41.6552 41.828 41.2286 42.2908C40.8061 42.7539 36.7462 41.1379 36.6757 40.4089C36.6052 39.6799 37.715 32.6071 37.715 32.6071L37.4678 32.6023C37.4678 32.6023 34.7194 42.9569 30.8256 42.1287C26.8364 41.288 28.1158 36.6425 29.7743 28.815Z" fill="url(#paint7_linear)"/>
<path d="M33.6644 27.4911C34.1784 27.4688 36.4143 22.7809 36.4321 22.3369C36.4458 21.8926 32.9997 19.9773 32.2918 20.1045C31.5795 20.2355 31.352 25.2336 31.639 26.032C31.9255 26.8346 33.1417 27.5168 33.6644 27.4911Z" fill="url(#paint8_linear)"/>
<path d="M55.7014 41.8505C55.6168 42.1457 52.7607 41.4503 52.4535 40.6922C52.1421 39.9337 53.4694 24.7141 54.317 23.9015C54.734 23.5009 57.9704 25.4147 58.1178 25.9361C58.2653 26.4576 56.2161 35.104 56.2161 35.104L56.3439 35.1782C57.3822 32.9533 58.3948 26.4647 63.0641 27.2556C67.733 28.0508 65.6221 37.0196 60.5206 37.4264C60.5206 37.4264 62.6196 40.5394 66.3517 36.2597C66.3517 36.2597 67.2044 39.8982 66.3702 41.5651C65.5322 43.2275 58.9439 44.3658 58.3093 36.7959C58.3093 36.7959 61.8275 34.4812 61.88 31.7708C61.9011 30.7136 61.5002 30.3549 60.9927 30.3988C59.1868 30.556 56.7898 38.0456 55.7014 41.8505Z" fill="url(#paint9_linear)"/>
<defs>
<linearGradient id="paint0_linear" x1="37" y1="0" x2="37" y2="45" gradientUnits="userSpaceOnUse">
<stop stop-color="#FF9999"/>
<stop offset="0.863682" stop-color="#FE7979"/>
</linearGradient>
<linearGradient id="paint1_linear" x1="37" y1="0" x2="37" y2="45" gradientUnits="userSpaceOnUse">
<stop stop-color="#FF9999"/>
<stop offset="0.863682" stop-color="#FE7979"/>
</linearGradient>
<linearGradient id="paint2_linear" x1="37" y1="0" x2="37" y2="45" gradientUnits="userSpaceOnUse">
<stop stop-color="#FF9999"/>
<stop offset="0.863682" stop-color="#FE7979"/>
</linearGradient>
<linearGradient id="paint3_linear" x1="37" y1="0" x2="37" y2="45" gradientUnits="userSpaceOnUse">
<stop stop-color="#FF9999"/>
<stop offset="0.863682" stop-color="#FE7979"/>
</linearGradient>
<linearGradient id="paint4_linear" x1="37" y1="0" x2="37" y2="45" gradientUnits="userSpaceOnUse">
<stop stop-color="#FF9999"/>
<stop offset="0.863682" stop-color="#FE7979"/>
</linearGradient>
<linearGradient id="paint5_linear" x1="37" y1="0" x2="37" y2="45" gradientUnits="userSpaceOnUse">
<stop stop-color="#FF9999"/>
<stop offset="0.863682" stop-color="#FE7979"/>
</linearGradient>
<linearGradient id="paint6_linear" x1="37" y1="0" x2="37" y2="45" gradientUnits="userSpaceOnUse">
<stop stop-color="#FF9999"/>
<stop offset="0.863682" stop-color="#FE7979"/>
</linearGradient>
<linearGradient id="paint7_linear" x1="37" y1="0" x2="37" y2="45" gradientUnits="userSpaceOnUse">
<stop stop-color="#FF9999"/>
<stop offset="0.863682" stop-color="#FE7979"/>
</linearGradient>
<linearGradient id="paint8_linear" x1="37" y1="0" x2="37" y2="45" gradientUnits="userSpaceOnUse">
<stop stop-color="#FF9999"/>
<stop offset="0.863682" stop-color="#FE7979"/>
</linearGradient>
<linearGradient id="paint9_linear" x1="37" y1="0" x2="37" y2="45" gradientUnits="userSpaceOnUse">
<stop stop-color="#FF9999"/>
<stop offset="0.863682" stop-color="#FE7979"/>
</linearGradient>
</defs>
</svg>
